#!OML:ASF X:\für Bonn\!DataBase\2005_08_11_Bastian_Final\c3d\Bastian.ASF
:FULLY-SPECIFIED
:DEGREES
49
root 2.31074 23.9335 -9.89133 714.15 -4.35332 -4.18113
lowerback 20.6757 0.559552 -0.932204
upperback 8.52636 0.473657 -1.14449
thorax -2.32043 0.221524 -0.790986
lowerneck -16.7647 -5.204 -10.8899
upperneck -0.901147 -5.36598 11.5826
head 3.03875 -2.19041 4.93727
rclavicle -4.37326e-015 -7.95139e-015
rhumerus -48.5363 16.3913 -91.1252
rradius 85.4396
rwrist 6.9991
rhand -13.9212 25.1538
rfingers 7.12502
rthumb 12.2051 -4.4701
lclavicle -4.37326e-015 -7.95139e-015
lhumerus -43.9046 -5.08719 76.2594
lradius 93.7922
lwrist -159.968
lhand -28.1629 7.81546
lfingers 7.12502
lthumb -1.5432 37.7896
rfemur -23.2041 3.76515 27.572
rtibia 60.515
rfoot 3.67571 -11.3426
rtoes 35.0047
lfemur -25.2313 11.7799 -17.4338
ltibia 69.4482
lfoot 11.4075 -2.94606
ltoes -40.9295
50
root 2.29978 23.9292 -9.72278 714.171 -4.21245 -4.20732
lowerback 21.3702 0.681884 -1.06476
upperback 8.54416 0.592548 -1.17323
thorax -2.65111 0.278511 -0.780894
lowerneck -16.5847 -5.27908 -11.005
upperneck -1.0022 -5.46731 11.8073
head 3.00504 -2.23751 5.02064
rclavicle -1.03368e-014 5.56597e-015
rhumerus -47.972 15.6223 -91.1849
rradius 82.8261
rwrist 7.08864
rhand -14.1744 25.1281
rfingers 7.12502
rthumb 11.9609 -4.51017
lclavicle -1.03368e-014 5.56597e-015
lhumerus -42.8787 -4.11043 76.2748
lradius 91.3434
lwrist -161.949
lhand -28.0807 7.74652
lfingers 7.12502
lthumb -1.46387 37.7212
rfemur -23.611 3.50357 27.6039
rtibia 59.8069
rfoot 3.86002 -11.3913
rtoes 35.7425
lfemur -25.5919 11.4328 -17.4262
ltibia 68.3621
lfoot 12.176 -4.44968
ltoes -41.9454
51
root 2.28992 23.9133 -9.54948 714.229 -4.07067 -4.23124
lowerback 21.9459 0.797719 -1.1735
upperback 8.55338 0.70764 -1.205
thorax -2.92988 0.334248 -0.78749
lowerneck -16.3597 -5.35228 -11.1332
upperneck -1.18556 -5.56335 12.0536
head 2.9408 -2.28338 5.11463
rclavicle -2.78299e-015 -1.82882e-014
rhumerus -47.4126 14.8088 -91.2383
rradius 80.056
rwrist 7.148
rhand -14.5966 25.3981
rfingers 7.12502
rthumb 11.5538 -4.26347
lclavicle -2.78299e-015 -1.82882e-014
lhumerus -41.8718 -3.09362 76.2577
lradius 88.8684
lwrist -163.909
lhand -27.9431 7.78055
lfingers 7.12502
lthumb -1.331 37.7561
rfemur -24.0224 3.23793 27.6197
rtibia 59.0895
rfoot 4.41577 -11.281
rtoes 36.6884
lfemur -25.934 11.0973 -17.4136
ltibia 67.1908
lfoot 12.8461 -6.09291
ltoes -42.499
52
root 2.27922 23.8896 -9.3715 714.369 -3.96098 -4.24941
lowerback 22.3782 0.929667 -1.28989
upperback 8.51284 0.84275 -1.23586
thorax -3.19009 0.399895 -0.793834
lowerneck -16.0903 -5.43023 -11.3416
upperneck -1.37679 -5.66019 12.4128
head 2.87534 -2.32707 5.25836
rclavicle -7.15625e-015 2.06736e-014
rhumerus -46.8607 14.0063 -91.2782
rradius 77.2614
rwrist 7.09174
rhand -14.8259 25.3504
rfingers 7.12502
rthumb 11.3327 -4.32341
lclavicle -7.15625e-015 2.06736e-014
lhumerus -40.9547 -2.10378 76.2427
lradius 86.3838
lwrist -165.828
lhand -27.7202 7.81863
lfingers 7.12502
lthumb -1.11568 37.7955
rfemur -24.4712 2.93539 27.6288
rtibia 58.3632
rfoot 5.03499 -11.2321
rtoes 37.25
lfemur -26.2811 10.7584 -17.3892
ltibia 65.9515
lfoot 13.3345 -7.75741
ltoes -42.6961
53
root 2.26887 23.8549 -9.19063 714.636 -3.81511 -4.27677
lowerback 22.6723 1.02993 -1.40477
upperback 8.35763 0.938071 -1.26087
thorax -3.50602 0.446545 -0.785476
lowerneck -15.5854 -5.45817 -11.5393
upperneck -1.61757 -5.71194 12.7628
head 2.75371 -2.3577 5.40486
rclavicle 7.15625e-015 -1.11319e-014
rhumerus -46.4114 13.2303 -91.3473
rradius 74.4337
rwrist 7.04464
rhand -14.968 24.9563
rfingers 7.12502
rthumb 11.1956 -4.72503
lclavicle 7.15625e-015 -1.11319e-014
lhumerus -40.2353 -1.07496 76.2208
lradius 83.7273
lwrist -167.57
lhand -27.2447 8.04705
lfingers 7.12502
lthumb -0.656388 38.0258
rfemur -25.0173 2.60307 27.6415
rtibia 57.6377
rfoot 5.69918 -11.3971
rtoes 36.9772
lfemur -26.7367 10.4154 -17.3617
ltibia 64.6706
lfoot 13.6392 -9.4068
ltoes -42.7101
54
root 2.2582 23.804 -9.00646 714.96 -3.69559 -4.32402
lowerback 22.8316 1.13508 -1.53545
upperback 8.21226 1.04062 -1.25417
thorax -3.7452 0.496158 -0.734372
lowerneck -15.2135 -5.48358 -11.7588
upperneck -1.78975 -5.74888 13.1251
head 2.67262 -2.37648 5.55858
rclavicle 3.18055e-015 2.54444e-014
rhumerus -45.9174 12.5106 -91.3514
rradius 71.6861
rwrist 6.91967
rhand -15.0681 24.2516
rfingers 7.12502
rthumb 11.0991 -5.43491
lclavicle 3.18055e-015 2.54444e-014
lhumerus -39.4811 -0.0113783 76.1959
lradius 80.8831
lwrist -168.952
lhand -26.6376 8.19835
lfingers 7.12502
lthumb -0.0700938 38.1781
rfemur -25.6132 2.25032 27.671
rtibia 56.9311
rfoot 6.38123 -11.6978
rtoes 36.5612
lfemur -27.2125 10.123 -17.2928
ltibia 63.3632
lfoot 13.6672 -10.8789
ltoes -42.6687
55
root 2.24701 23.7331 -8.82018 715.24 -3.58393 -4.37455
lowerback 22.9745 1.23307 -1.6519
upperback 8.0926 1.13625 -1.26153
thorax -3.9482 0.542796 -0.704778
lowerneck -14.8933 -5.51151 -11.9035
upperneck -2.01112 -5.79135 13.4477
head 2.58196 -2.39905 5.68694
rclavicle 1.51076e-014 3.18055e-015
rhumerus -45.3662 11.7454 -91.328
rradius 68.9867
rwrist 6.81052
rhand -15.1494 23.4978
rfingers 7.12502
rthumb 11.0207 -6.19291
lclavicle 1.51076e-014 3.18055e-015
lhumerus -38.7362 1.14061 76.0948
lradius 78.0607
lwrist -170.24
lhand -26.0255 8.08554
lfingers 7.12502
lthumb 0.521146 38.0646
rfemur -26.153 1.88028 27.7272
rtibia 56.271
rfoot 6.95986 -12.1066
rtoes 36.1604
lfemur -27.5808 9.86573 -17.174
ltibia 62.0395
lfoot 13.6481 -12.1202
ltoes -41.7761
56
root 2.2332 23.6462 -8.63102 715.464 -3.48567 -4.3333
lowerback 23.0463 1.34716 -1.90558
upperback 8.02419 1.22538 -1.2666
thorax -4.06281 0.584603 -0.591239
lowerneck -14.703 -5.5324 -11.9494
upperneck -2.19429 -5.82181 13.5718
head 2.50919 -2.41818 5.73515
rclavicle -3.97569e-015 1.03368e-014
rhumerus -44.768 11.0092 -91.2847
rradius 66.3743
rwrist 6.69446
rhand -15.3345 22.6162
rfingers 7.12502
rthumb 10.8421 -7.08392
lclavicle -3.97569e-015 1.03368e-014
lhumerus -38.0204 2.48231 75.94
lradius 75.219
lwrist -171.408
lhand -25.4568 7.97609
lfingers 7.12502
lthumb 1.0704 37.9531
rfemur -26.6221 1.52444 27.6983
rtibia 55.644
rfoot 7.31078 -12.6075
rtoes 35.9845
lfemur -27.8356 9.66678 -17.1123
ltibia 60.708
lfoot 13.7077 -13.1727
ltoes -39.7429
57
root 2.21885 23.5427 -8.43974 715.675 -3.35244 -4.20495
lowerback 23.0729 1.47134 -2.20678
upperback 7.95763 1.31608 -1.31055
thorax -4.15331 0.627593 -0.492222
lowerneck -14.4889 -5.55295 -11.8702
upperneck -2.50615 -5.85887 13.5615
head 2.38553 -2.4475 5.72077
rclavicle -3.57812e-015 -1.19271e-014
rhumerus -44.2148 10.118 -91.2011
rradius 63.7701
rwrist 6.7995
rhand -15.7245 21.9278
rfingers 7.12502
rthumb 10.4659 -7.79171
lclavicle -3.57812e-015 -1.19271e-014
lhumerus -37.3357 3.76942 75.7099
lradius 72.448
lwrist -172.502
lhand -24.9042 7.68895
lfingers 7.12502
lthumb 1.6041 37.6627
rfemur -27.0692 1.14886 27.5728
rtibia 55.051
rfoot 7.40973 -13.2806
rtoes 36.236
lfemur -28.0093 9.39933 -17.1352
ltibia 59.3702
lfoot 13.8369 -13.861
ltoes -36.7295
58
root 2.20727 23.4256 -8.24454 715.965 -3.17086 -4.10848
lowerback 22.9695 1.54031 -2.45884
upperback 7.88683 1.35178 -1.34302
thorax -4.18275 0.644187 -0.391792
lowerneck -14.2899 -5.56503 -11.8116
upperneck -2.8612 -5.8744 13.5154
head 2.24754 -2.46697 5.70085
rclavicle -1.23246e-014 2.62396e-014
rhumerus -43.7497 9.26776 -91.11
rradius 61.1572
rwrist 6.98179
rhand -16.3899 21.4934
rfingers 7.12502
rthumb 9.82399 -8.25738
lclavicle -1.23246e-014 2.62396e-014
lhumerus -36.7191 5.24867 75.4343
lradius 69.6642
lwrist -173.761
lhand -24.3385 7.62626
lfingers 7.12502
lthumb 2.15048 37.5952
rfemur -27.5589 0.751003 27.4638
rtibia 54.4402
rfoot 7.22039 -14.1108
rtoes 36.8838
lfemur -28.2213 9.03746 -17.1391
ltibia 58.0513
lfoot 13.9118 -14.1659
ltoes -33.6459
59
root 2.19676 23.3025 -8.04707 716.273 -2.95353 -4.05671
lowerback 22.8311 1.59113 -2.62345
upperback 7.80935 1.38427 -1.3854
thorax -4.20006 0.66036 -0.350224
lowerneck -14.2141 -5.61043 -11.7125
upperneck -3.08245 -5.94066 13.503
head 2.1752 -2.50552 5.6781
rclavicle 2.5842e-014 8.74653e-015
rhumerus -43.4024 8.34154 -91.0127
rradius 58.5914
rwrist 7.00855
rhand -17.0986 21.3189
rfingers 7.12502
rthumb 9.14016 -8.463
lclavicle 2.5842e-014 8.74653e-015
lhumerus -36.1532 6.68611 75.0943
lradius 66.8704
lwrist -175.047
lhand -23.7389 7.52464
lfingers 7.12502
lthumb 2.72954 37.4869
rfemur -28.0126 0.301857 27.4049
rtibia 53.7917
rfoot 7.08218 -15.0126
rtoes 37.6112
lfemur -28.4146 8.57273 -17.0796
ltibia 56.7337
lfoot 13.8903 -14.0839
ltoes -31.401
60
root 2.18766 23.1723 -7.84624 716.551 -2.79039 -4.1224
lowerback 22.6953 1.63504 -2.69949
upperback 7.72658 1.43094 -1.35799
thorax -4.22479 0.683455 -0.287701
lowerneck -14.1188 -5.65245 -11.7499
upperneck -3.32762 -5.98228 13.5555
head 2.09667 -2.52988 5.70126
rclavicle -1.55052e-014 -7.95139e-015
rhumerus -43.1635 7.52834 -90.8722
rradius 56.0442
rwrist 6.82998
rhand -17.8878 21.3619
rfingers 7.12502
rthumb 8.37862 -8.45189
lclavicle -1.55052e-014 -7.95139e-015
lhumerus -35.7315 8.23541 74.7433
lradius 64.1858
lwrist -176.205
lhand -23.2616 7.37777
lfingers 7.12502
lthumb 3.19048 37.3336
rfemur -28.3394 -0.125964 27.481
rtibia 53.067
rfoot 7.14344 -15.9766
rtoes 38.4277
lfemur -28.5543 8.15123 -16.8739
ltibia 55.4429
lfoot 13.755 -13.798
ltoes -30.9734
61
root 2.17848 23.0356 -7.6436 716.814 -2.63162 -4.24709
lowerback 22.561 1.67763 -2.71655
upperback 7.63113 1.48949 -1.3109
thorax -4.26362 0.712855 -0.240804
lowerneck -14.0449 -5.7107 -11.7722
upperneck -3.52225 -6.05042 13.6212
head 2.04006 -2.56606 5.72324
rclavicle -3.97569e-016 7.15625e-015
rhumerus -43.0991 6.83018 -90.7739
rradius 53.7871
rwrist 6.1603
rhand -18.4231 21.2064
rfingers 7.12502
rthumb 7.86196 -8.62741
lclavicle -3.97569e-016 7.15625e-015
lhumerus -35.4385 9.731 74.3697
lradius 61.5997
lwrist -177.34
lhand -22.8021 7.33185
lfingers 7.12502
lthumb 3.63425 37.2806
rfemur -28.5851 -0.492734 27.6143
rtibia 52.2788
rfoot 7.38401 -16.8566
rtoes 38.9929
lfemur -28.6345 7.71459 -16.5864
ltibia 54.1578
lfoot 13.6037 -13.3545
ltoes -32.0357
62
root 2.17042 22.887 -7.43915 716.975 -2.4608 -4.57685
lowerback 22.5766 1.68504 -2.5339
upperback 7.49542 1.54276 -1.19272
thorax -4.41932 0.74118 -0.234039
lowerneck -13.8762 -5.75465 -11.8883
upperneck -3.69698 -6.09853 13.7799
head 1.97975 -2.59226 5.7931
rclavicle -3.33958e-014 2.38542e-015
rhumerus -43.2035 6.21457 -90.6941
rradius 51.68
rwrist 5.18753
rhand -18.7154 20.9384
rfingers 7.12502
rthumb 7.5799 -8.90582
lclavicle -3.33958e-014 2.38542e-015
lhumerus -35.4005 11.1947 73.9296
lradius 59.1462
lwrist -178.394
lhand -22.4142 7.37286
lfingers 7.12502
lthumb 4.00879 37.3149
rfemur -28.6574 -0.876166 27.9729
rtibia 51.4341
rfoot 7.80393 -17.4892
rtoes 38.8188
lfemur -28.5823 7.22225 -16.0399
ltibia 52.9022
lfoot 13.5778 -12.7402
ltoes -33.5574
63
root 2.16235 22.726 -7.23164 717.08 -2.29473 -4.9372
lowerback 22.625 1.67052 -2.31971
upperback 7.39373 1.57405 -1.08149
thorax -4.55323 0.758253 -0.247329
lowerneck -13.7652 -5.79111 -12.0073
upperneck -3.93653 -6.12652 14.0146
head 1.9109 -2.60532 5.88919
rclavicle 3.81667e-014 -1.98785e-014
rhumerus -43.3284 5.77782 -90.6783
rradius 49.7316
rwrist 4.05374
rhand -18.9783 20.512
rfingers 7.12502
rthumb 7.32611 -9.34118
lclavicle 3.81667e-014 -1.98785e-014
lhumerus -35.424 12.7221 73.3963
lradius 56.6841
lwrist -179.346
lhand -22.0828 7.13289
lfingers 7.12502
lthumb 4.32883 37.0686
rfemur -28.6367 -1.28366 28.3629
rtibia 50.5791
rfoot 8.29364 -17.9011
rtoes 38.6375
lfemur -28.4388 6.72132 -15.4491
ltibia 51.657
lfoot 13.6788 -11.9103
ltoes -35.0048
